<?xml version="1.0" encoding="utf-8"?><svg xml:space="preserve" viewBox="0 0 100 100" y="0" x="0" xmlns="http://www.w3.org/2000/svg" id="圖層_1" version="1.1" width="47px" height="47px" xmlns:xlink="http://www.w3.org/1999/xlink" style="width:100%;height:100%;background-size:initial;background-repeat-y:initial;background-repeat-x:initial;background-position-y:initial;background-position-x:initial;background-origin:initial;background-color:initial;background-clip:initial;background-attachment:initial;animation-play-state:paused" ><g class="ldl-scale" style="transform-origin:50% 50%;transform:rotate(0deg) scale(0.8, 0.8);animation-play-state:paused" ><path stroke="#333" fill="#e0e0e0" stroke-miterlimit="10" stroke-linejoin="round" stroke-linecap="round" stroke-width="3.5" d="M48.797 23.022c-12.956 0-23.458 18.426-23.458 41.156C25.339 80.51 37.45 90.609 44.268 95l4.529-19.992L53.326 95c6.818-4.391 18.929-14.489 18.929-30.822 0-22.73-10.503-41.156-23.458-41.156z" style="stroke:rgb(51, 51, 51);fill:rgb(0, 173, 255);animation-play-state:paused" ></path>
<path d="M58.149 24.854V13.535l16.512 5.66z" stroke-miterlimit="10" stroke-linejoin="round" stroke-linecap="round" stroke-width="3.5" stroke="#333" fill="#f8b26a" style="stroke:rgb(51, 51, 51);fill:rgb(248, 178, 106);animation-play-state:paused" ></path>
<path stroke-miterlimit="10" stroke="#333" stroke-width="3.5" fill="#e0e0e0" d="M61.757 28.961c-8.64-2.383-17.28-2.383-25.92 0l1.082-12.418C37.491 9.978 41.993 5 47.358 5h2.877c5.366 0 9.868 4.978 10.44 11.543l1.082 12.418z" style="stroke:rgb(51, 51, 51);fill:rgb(0, 173, 255);animation-play-state:paused" ></path>
<circle fill="#333" r="2.718" cy="15.593" cx="52.844" style="fill:rgb(51, 51, 51);animation-play-state:paused" ></circle>
<metadata xmlns:d="https://loading.io/stock/" style="animation-play-state:paused" ><d:name style="animation-play-state:paused" >pigeon</d:name>


<d:tags style="animation-play-state:paused" >pigeon,dove,bird,fly,peace,animal</d:tags>


<d:license style="animation-play-state:paused" >by</d:license>


<d:slug style="animation-play-state:paused" >ne882o</d:slug></metadata></g><!-- generated by https://loading.io/ --></svg>